# xmcd
#
# Track frame offsets:
#   150
#   14560
#   30302
#   47280
#   63210
#   81365
#   98900
#   113585
#   127170
#   140047
#   158359
#   173675
#   188835
#   206225
#
# Disc length: 2909 seconds
#
# Revision: 0
# Processed by: cddbd v1.5.2PL0 Copyright (c) Steve Scherf et al.
# Submitted via: uFREEDB ActiveX Control 1.5
#
DISCID=b40b5b0e
DTITLE=ALAM and ALADIM - BIS SERTANEJO
DYEAR=2007
DGENRE=Country
TTITLE0=APRENDIZ DO AMOR
TTITLE1=ME DEIXA ENTRAR EM SUA VIDA
TTITLE2=MULHER
TTITLE3=AMIGA
TTITLE4=NOSSA ESTRELA
TTITLE5=NÃO VÁ
TTITLE6=TE AMO DE CORAÇÃO
TTITLE7=EU NEM SEI EXISTIR
TTITLE8=VOLTE QUERIDA
TTITLE9=FELICIDADE AMOR
TTITLE10=CASTIGO
TTITLE11=O PRIMEIRO EM SUA VIDA
TTITLE12=PARABENS AMOR
TTITLE13=VOLTEI PRA VOCÊ
EXTD=
EXTT0=
EXTT1=
EXTT2=
EXTT3=
EXTT4=
EXTT5=
EXTT6=
EXTT7=
EXTT8=
EXTT9=
EXTT10=
EXTT11=
EXTT12=
EXTT13=
PLAYORDER=
